<svg xmlns="http://www.w3.org/2000/svg" width="128" height="128" viewBox="0 0 128 128" shape-rendering="crispEdges"><rect width="128" height="128" fill="#24243a"/><rect y="73" width="128" height="55" fill="#66513f"/><rect y="70" width="128" height="3" fill="#4c3a31"/><path fill="#584332" d="M0 87h128v2H0zM0 101h128v2H0zM0 115h128v2H0z"/><path fill="#513d31" d="M20 73h2v55h-2zM48 73h2v55h-2zM77 73h2v55h-2zM106 73h2v55h-2z"/><path fill="#17130f" d="M5 10h35v42H5z"/><rect x="8" y="13" width="29" height="36" fill="#334c66"/><rect x="9" y="14" width="13" height="15" fill="#496c83"/><rect x="24" y="14" width="12" height="15" fill="#405e74"/><rect x="9" y="31" width="13" height="16" fill="#3c5b70"/><rect x="24" y="31" width="12" height="16" fill="#344f64"/><rect x="22" y="13" width="2" height="36" fill="#9b876e"/><rect x="7" y="29" width="31" height="2" fill="#9b876e"/><rect x="5" y="52" width="35" height="24" fill="#17130f"/><rect x="7" y="54" width="31" height="19" fill="#5c3526"/><rect x="9" y="58" width="11" height="5" fill="#8e5b40"/><rect x="24" y="58" width="11" height="5" fill="#8e5b40"/><rect x="5" y="50" width="35" height="3" fill="#925a3a"/><rect x="54" y="7" width="27" height="20" fill="#765036"/><rect x="57" y="10" width="21" height="14" fill="#c9bea8"/><rect x="59" y="12" width="17" height="10" fill="#958b79"/><rect x="92" y="10" width="31" height="4" fill="#643a27"/><rect x="95" y="14" width="4" height="24" fill="#75472f"/><rect x="117" y="14" width="4" height="24" fill="#75472f"/><rect x="99" y="18" width="17" height="3" fill="#8c5a3b"/><rect x="103" y="21" width="9" height="14" fill="#5c7790"/><rect x="100" y="36" width="18" height="3" fill="#8c5a3b"/><rect x="94" y="42" width="8" height="12" fill="#8d5140"/><rect x="103" y="41" width="7" height="13" fill="#526c86"/><rect x="111" y="43" width="8" height="11" fill="#92734a"/><rect x="92" y="57" width="13" height="8" fill="#55715b"/><rect x="95" y="53" width="7" height="5" fill="#638467"/><rect x="90" y="65" width="17" height="3" fill="#76513a"/><rect x="82" y="31" width="3" height="28" fill="#70432e"/><rect x="78" y="28" width="11" height="4" fill="#916044"/><rect x="81" y="24" width="6" height="5" fill="#b48c5c"/><rect x="99" y="73" width="26" height="30" fill="#9b8067"/><rect x="102" y="76" width="20" height="18" fill="#48647c"/><rect x="102" y="77" width="18" height="5" fill="#8395a1"/><rect x="99" y="94" width="26" height="4" fill="#7c563d"/><path fill="#6c5c48" d="M38 84h49l15 11-11 15H37L25 97z"/><path fill="#8b7b62" d="M43 86h39l12 9-9 11H41L31 97z"/><rect x="14" y="105" width="14" height="3" fill="#68462f"/><rect x="16" y="102" width="10" height="3" fill="#81563b"/><rect x="19" y="100" width="5" height="2" fill="#b09b79"/><path fill="#f5d46a" d="M106 18h4v2h3v3h-3v2h-4v-2h-2v-3h2z"/></svg>